<?xml version="1.0" encoding="utf-8"?>
<!-- Generator: Adobe Illustrator 26.3.1, SVG Export Plug-In . SVG Version: 6.00 Build 0)  -->
<svg version="1.1" id="レイヤー_1" xmlns="http://www.w3.org/2000/svg" xmlns:xlink="http://www.w3.org/1999/xlink" x="0px"
	 y="0px" viewBox="0 0 33 33" style="enable-background:new 0 0 33 33;" xml:space="preserve">
<style type="text/css">
	.st0{fill:none;stroke:#000000;stroke-width:2;stroke-linecap:round;stroke-linejoin:round;}
</style>
<path d="M20.8,15.2c0.8,0,1.5-0.7,1.5-1.5c0-0.8-0.7-1.5-1.5-1.5c-0.8,0-1.5,0.7-1.5,1.5C19.3,14.5,20,15.2,20.8,15.2z"/>
<path class="st0" d="M16.5,4.5c-6.6,0-12,5.4-12,12s5.4,12,12,12s12-5.4,12-12S23.1,4.5,16.5,4.5z"/>
<path d="M12.2,15.2c-0.8,0-1.5-0.7-1.5-1.5c0-0.8,0.7-1.5,1.5-1.5c0.8,0,1.5,0.7,1.5,1.5C13.7,14.5,13,15.2,12.2,15.2z"/>
<path class="st0" d="M16.5,22.7L16.5,22.7c4.1,0,4.5-3.8,4.5-3.8"/>
<path class="st0" d="M12,18.9c0,0,0.4,3.8,4.5,3.8"/>
</svg>
