<?xml version="1.0" encoding="utf-8"?>
<!-- Generator: Adobe Illustrator 26.3.1, SVG Export Plug-In . SVG Version: 6.00 Build 0)  -->
<svg version="1.1" id="レイヤー_1" xmlns="http://www.w3.org/2000/svg" xmlns:xlink="http://www.w3.org/1999/xlink" x="0px"
	 y="0px" viewBox="0 0 33 33" style="enable-background:new 0 0 33 33;" xml:space="preserve">
<style type="text/css">
	.st0{fill:none;stroke:#000000;stroke-width:2;stroke-linecap:round;stroke-linejoin:round;}
	.st1{fill:none;stroke:#000000;stroke-width:2;stroke-linecap:round;stroke-linejoin:bevel;stroke-miterlimit:1;}
</style>
<line class="st0" x1="14.7" y1="15.2" x2="14.7" y2="15.2"/>
<line class="st0" x1="18.3" y1="15.2" x2="18.3" y2="15.2"/>
<path class="st0" d="M16.5,22.2c3.2,0,5.8-2.6,5.8-5.7s-2.6-5.7-5.8-5.7s-5.8,2.6-5.8,5.7C10.7,19.6,13.3,22.2,16.5,22.2z"/>
<path class="st1" d="M15.2,17.7c0,0,0.1,1,1.4,1c1.2,0,1.3-1,1.3-1"/>
<path class="st0" d="M14.3,17.7"/>
<path class="st0" d="M6.7,10.9"/>
<path class="st0" d="M26.3,22.1"/>
<path class="st0" d="M24,24.8"/>
<path class="st0" d="M8.9,8.9"/>
<path class="st0" d="M5.7,16.5"/>
<path class="st0" d="M-2.5,12.6"/>
<g>
	<polygon class="st0" points="26,21.4 25.9,24.1 28.3,22.8 	"/>
	<path class="st0" d="M16.5,28.5c-2.1,0-4.3-0.6-6.2-1.8c-5.7-3.5-7.4-10.9-4-16.5"/>
	<path class="st0" d="M16.5,28.5"/>
	<path class="st0" d="M16.5,4.5c2.1,0,4.3,0.6,6.3,1.8c5.7,3.5,7.4,10.9,4,16.5"/>
	<polygon class="st0" points="4.7,10.2 7,8.9 7,11.6 	"/>
</g>
</svg>
