<?xml version="1.0" encoding="utf-8"?>
<!-- Generator: Adobe Illustrator 26.3.1, SVG Export Plug-In . SVG Version: 6.00 Build 0)  -->
<svg version="1.1" id="レイヤー_1" xmlns="http://www.w3.org/2000/svg" xmlns:xlink="http://www.w3.org/1999/xlink" x="0px"
	 y="0px" viewBox="0 0 33 33" style="enable-background:new 0 0 33 33;" xml:space="preserve">
<style type="text/css">
	.st0{fill:none;stroke:#000000;stroke-width:2;stroke-linecap:round;stroke-linejoin:round;}
</style>
<path class="st0" d="M16.1,27.1c0,0-12.5-7-12.5-15.5c0-1.5,0.5-3,1.5-4.1s2.3-2,3.8-2.3c1.5-0.3,3-0.1,4.3,0.6s2.4,1.9,2.9,3.2l0,0
	c0.6-1.4,1.6-2.5,2.9-3.2c1.3-0.7,2.9-0.9,4.3-0.6c1.5,0.3,2.8,1.1,3.8,2.3c1,1.2,1.5,2.6,1.5,4.1C28.6,20.1,16.1,27.1,16.1,27.1z"
	/>
</svg>
