<svg width="32" height="33" viewBox="0 0 32 33" fill="none" xmlns="http://www.w3.org/2000/svg">
<path d="M27 11.9125V26.5C27 26.7652 26.8946 27.0196 26.7071 27.2071C26.5196 27.3946 26.2652 27.5 26 27.5H6C5.73478 27.5 5.48043 27.3946 5.29289 27.2071C5.10536 27.0196 5 26.7652 5 26.5V6.5C5 6.23478 5.10536 5.98043 5.29289 5.79289C5.48043 5.60536 5.73478 5.5 6 5.5H20.5875C20.7174 5.49954 20.846 5.5247 20.9661 5.57404C21.0862 5.62337 21.1955 5.69591 21.2875 5.7875L26.7125 11.2125C26.8041 11.3045 26.8766 11.4138 26.926 11.5339C26.9753 11.654 27.0005 11.7826 27 11.9125V11.9125Z" stroke="black" stroke-width="2" stroke-linecap="round" stroke-linejoin="round"/>
<path d="M10 27.5V19.5C10 19.2348 10.1054 18.9804 10.2929 18.7929C10.4804 18.6054 10.7348 18.5 11 18.5H21C21.2652 18.5 21.5196 18.6054 21.7071 18.7929C21.8946 18.9804 22 19.2348 22 19.5V27.5" stroke="black" stroke-width="2" stroke-linecap="round" stroke-linejoin="round"/>
<path d="M19 9.5H12" stroke="black" stroke-width="2" stroke-linecap="round" stroke-linejoin="round"/>
</svg>
