<svg width="33" height="33" viewBox="0 0 33 33" fill="none" xmlns="http://www.w3.org/2000/svg">
<path d="M16.0903 27.0813C16.0903 27.0813 3.59033 20.0813 3.59033 11.5813C3.59033 10.0787 4.11095 8.62244 5.06361 7.46038C6.01627 6.29832 7.34212 5.50223 8.81558 5.20753C10.289 4.91284 11.8191 5.13776 13.1454 5.84402C14.4717 6.55028 15.5124 7.69426 16.0903 9.08131V9.08131C16.6683 7.69426 17.7089 6.55028 19.0353 5.84402C20.3616 5.13776 21.8916 4.91284 23.3651 5.20753C24.8385 5.50223 26.1644 6.29832 27.1171 7.46038C28.0697 8.62244 28.5903 10.0787 28.5903 11.5813C28.5903 20.0813 16.0903 27.0813 16.0903 27.0813Z" stroke="black" stroke-width="2" stroke-linecap="round" stroke-linejoin="round"/>
</svg>
