<svg width="33" height="33" viewBox="0 0 33 33" fill="none" xmlns="http://www.w3.org/2000/svg">
<path d="M11.0903 21.0813L6.09033 26.0813" stroke="black" stroke-width="2" stroke-linecap="round" stroke-linejoin="round"/>
<path d="M6.09033 5.0813L26.0903 27.0813" stroke="black" stroke-width="2" stroke-linecap="round" stroke-linejoin="round"/>
<path d="M11.8029 11.3688L11.5904 11.5813C11.5904 11.5813 8.12788 9.84375 4.41538 12.8438C4.30613 12.9322 4.21675 13.0426 4.15305 13.1679C4.08936 13.2931 4.05278 13.4304 4.0457 13.5708C4.03863 13.7111 4.06121 13.8514 4.11198 13.9824C4.16276 14.1134 4.24058 14.2323 4.34038 14.3313L17.8154 27.8063C17.9162 27.9089 18.0381 27.9885 18.1725 28.0398C18.307 28.091 18.451 28.1126 18.5946 28.1031C18.7381 28.0936 18.878 28.0533 19.0046 27.9848C19.1311 27.9163 19.2414 27.8213 19.3279 27.7063C20.2779 26.4438 21.7154 23.9688 20.9154 21.3938" stroke="black" stroke-width="2" stroke-linecap="round" stroke-linejoin="round"/>
<path d="M23.2029 17.9688L28.3779 12.7938C28.4724 12.7008 28.5474 12.5898 28.5986 12.4675C28.6498 12.3452 28.6762 12.2139 28.6762 12.0813C28.6762 11.9487 28.6498 11.8174 28.5986 11.6951C28.5474 11.5728 28.4724 11.4619 28.3779 11.3688L20.8029 3.79381C20.7098 3.69933 20.5989 3.62429 20.4766 3.57308C20.3543 3.52186 20.223 3.49548 20.0904 3.49548C19.9578 3.49548 19.8265 3.52186 19.7042 3.57308C19.5818 3.62429 19.4709 3.69933 19.3779 3.79381L14.6404 8.53131" stroke="black" stroke-width="2" stroke-linecap="round" stroke-linejoin="round"/>
</svg>
