<?xml version="1.0" encoding="utf-8"?>
<!-- Generator: Adobe Illustrator 26.3.1, SVG Export Plug-In . SVG Version: 6.00 Build 0)  -->
<svg version="1.1" id="レイヤー_1" xmlns="http://www.w3.org/2000/svg" xmlns:xlink="http://www.w3.org/1999/xlink" x="0px"
	 y="0px" viewBox="0 0 32 33" style="enable-background:new 0 0 32 33;" xml:space="preserve">
<style type="text/css">
	.st0{fill:#FFFFFF;}
	.st1{fill:none;stroke:#000000;stroke-width:2;stroke-linecap:round;stroke-linejoin:round;}
	.st2{fill:#F9F7F7;stroke:#000000;stroke-width:2;stroke-linecap:round;stroke-linejoin:round;}
</style>
<g id="xEFpQZ.tif">
	<g>
		<path d="M28.9,89c-0.4,0.3-0.7,0.5-1,0.7c-1.1,0.7-2.3,0.6-3.1-0.3c-0.9-0.9-1.7-1.9-2.5-3c-0.7-1-0.6-2.3,0.3-3.1
			c2.2-1.8,4.4-3.5,6.6-5.1c1-0.7,2.2-0.7,3.3-0.5c0.3,0,0.6,0.4,0.8,0.7c0.2,0.3,0.1,0.6,0.2,1c0.3,1.1,1.3,1.8,2.5,1.7
			c1.2-0.1,2.1-0.9,2.3-2.1c0.2-1.3,0.3-1.4,1.7-1.4c1.3,0,2.4,0.3,3.4,1.1c1.7,1.4,3.5,2.8,5.3,4.2c1.5,1.2,1.7,2.5,0.5,4
			c-0.6,0.7-1.1,1.4-1.7,2c-1.2,1.5-2.5,1.6-4,0.5c-0.1-0.1-0.3-0.2-0.6-0.4c0,0.4,0,0.6,0,0.9c0,2.1,0,4.3,0,6.4
			c0,2.5-1.2,3.6-3.7,3.6c-2.2,0-4.4,0-6.7,0c-2.5,0-3.7-1.2-3.7-3.6c0-2.2,0-4.3,0-6.5C28.9,89.7,28.9,89.4,28.9,89z M40.8,91.6
			c0-1.7,0-3.4,0-5.1c0-0.3,0.2-0.8,0.5-0.9c0.2-0.1,0.7,0.1,0.9,0.3c0.9,0.6,1.7,1.3,2.6,2c0.4,0.3,0.6,0.3,1-0.1
			c0.6-0.7,1.2-1.5,1.8-2.2c0.4-0.4,0.3-0.6-0.1-1c-1.8-1.4-3.6-2.8-5.4-4.3c-0.3-0.2-0.6-0.4-0.9-0.5c-0.5-0.2-0.8-0.2-1.1,0.5
			c-0.7,1.9-2.2,2.8-4.1,2.9c-1.8,0.1-3.5-1.1-4.2-2.8c-0.3-0.8-0.5-0.9-1.3-0.5c-0.2,0.1-0.4,0.2-0.6,0.3c-1.9,1.5-3.7,3-5.6,4.4
			c-0.3,0.3-0.4,0.5-0.1,0.8c0.6,0.7,1.3,1.5,1.9,2.3c0.3,0.4,0.6,0.4,1,0.1c0.9-0.7,1.7-1.4,2.7-2.1c0.2-0.2,0.6-0.3,0.8-0.2
			c0.2,0.1,0.3,0.5,0.4,0.7c0.1,0.2,0,0.4,0,0.6c0,3.1,0,6.2,0,9.4c0,1.3,0.3,1.6,1.7,1.6c2.3,0,4.5,0,6.8,0c1.1,0,1.4-0.4,1.4-1.4
			C40.8,94.9,40.8,93.3,40.8,91.6z"/>
		<path class="st0" d="M40.8,91.6c0,1.6,0,3.3,0,4.9c0,1.1-0.4,1.4-1.4,1.4c-2.3,0-4.5,0-6.8,0c-1.3,0-1.7-0.3-1.7-1.6
			c0-3.1,0-6.2,0-9.4c0-0.2,0-0.4,0-0.6c-0.1-0.3-0.2-0.6-0.4-0.7c-0.2-0.1-0.6,0-0.8,0.2c-0.9,0.7-1.8,1.4-2.7,2.1
			c-0.4,0.3-0.7,0.4-1-0.1c-0.6-0.8-1.2-1.5-1.9-2.3c-0.3-0.3-0.3-0.6,0.1-0.8c1.9-1.5,3.7-3,5.6-4.4c0.2-0.1,0.4-0.2,0.6-0.3
			c0.8-0.4,1-0.3,1.3,0.5c0.7,1.7,2.4,2.9,4.2,2.8c2-0.1,3.4-1,4.1-2.9c0.2-0.6,0.6-0.7,1.1-0.5c0.3,0.1,0.6,0.3,0.9,0.5
			c1.8,1.4,3.6,2.9,5.4,4.3c0.4,0.3,0.5,0.6,0.1,1c-0.6,0.7-1.2,1.4-1.8,2.2c-0.3,0.4-0.6,0.4-1,0.1c-0.8-0.7-1.7-1.4-2.6-2
			c-0.3-0.2-0.7-0.4-0.9-0.3c-0.3,0.1-0.4,0.6-0.5,0.9C40.8,88.2,40.8,89.9,40.8,91.6z"/>
	</g>
</g>
<g>
	<path class="st1" d="M80,12.6c0,0-4.5-5-6.4-6.1c-0.7-0.4-1.8-0.9-1.8-0.9S71.6,8.9,68,8.9c-3.2,0-3.8-3.4-3.8-3.4S63,6.1,62.4,6.5
		c-1.9,1.1-6.4,6.4-6.4,6.4l2.4,2.7c0.8-0.8,1.6-1.5,2.1-1.8c0.5-0.3,1.3-0.7,1.3-0.7s0.1,0.3,0.3,0.8l0.2,0.4
		c0.4,0.6,1.1,1.1,2.2,1.1c2.6,0,2.8-2.3,2.8-2.3s0.8,0.4,1.3,0.7c1.3,0.8,4.5,4.2,4.5,4.2l-2.3,2.5l-2.2-1.8l0.2,7.5h5.2l-0.3-12.6
		l3.1,2.6L80,12.6z"/>
	<path class="st1" d="M58.4,15.6c-1.2,1.2-2.4,2.6-2.4,2.6l2.3,2.5l2.2-2l-0.2,8.7h8.4l0-1.2"/>
</g>
<path class="st2" d="M12.6,23.6l0.1-6.6l-1.7,1.5l-1.9-1.9c0,0,2.5-2.8,3.6-3.3c0.4-0.2,1-0.5,1-0.5s0.3,1.8,2.2,1.8
	c2,0,2.2-1.8,2.2-1.8s0.6,0.3,1,0.5c1.1,0.6,3.6,3.2,3.6,3.2l-1.9,1.9l-1.7-1.3l0.1,6.6H12.6z"/>
</svg>
