<?xml version="1.0" encoding="utf-8"?>
<!-- Generator: Adobe Illustrator 26.3.1, SVG Export Plug-In . SVG Version: 6.00 Build 0)  -->
<svg version="1.1" id="レイヤー_1" xmlns="http://www.w3.org/2000/svg" xmlns:xlink="http://www.w3.org/1999/xlink" x="0px"
	 y="0px" viewBox="0 0 33 33" style="enable-background:new 0 0 33 33;" xml:space="preserve">
<style type="text/css">
	.st0{fill:none;stroke:#000000;stroke-width:2;stroke-linecap:round;stroke-linejoin:round;}
</style>
<g>
	<line class="st0" x1="15.8" y1="17.6" x2="5.7" y2="29.1"/>
	<polygon class="st0" points="23.6,8.1 22.4,13.4 26.1,17.5 20.6,17.9 17.9,22.7 15.8,17.6 10.4,16.5 14.5,12.9 13.9,7.5 18.6,10.3 
			"/>
	<g>
		<path d="M7.3,11.6c0-0.2-0.1-0.3-0.2-0.4l-0.4-0.3l0.4-0.1c0.2,0,0.3-0.2,0.3-0.3L7.7,10l0.2,0.4c0.1,0.1,0.2,0.2,0.4,0.2l0.5,0
			L8.5,11c-0.1,0.1-0.1,0.3-0.1,0.5l0.1,0.4l-0.4-0.2c-0.1,0-0.1,0-0.2,0c-0.1,0-0.2,0-0.3,0.1L7.3,12L7.3,11.6z"/>
		<path d="M7.8,10.9c0,0,0.1,0.1,0.1,0.1c0,0.1,0,0.1,0,0.2c-0.1,0-0.1,0-0.2,0c0-0.1,0-0.1-0.1-0.1C7.7,11,7.7,11,7.8,10.9
			 M7.6,8.9l-0.5,1.4l-1.4,0.4l1.2,0.9L6.7,13l1.2-0.8l1.4,0.5l-0.4-1.4l0.9-1.1l-1.5-0.1L7.6,8.9L7.6,8.9z"/>
	</g>
	<g>
		<path d="M25.9,24c0-0.2-0.1-0.3-0.2-0.4l-0.4-0.3l0.4-0.1c0.2,0,0.3-0.2,0.3-0.3l0.2-0.4l0.2,0.4c0.1,0.1,0.2,0.2,0.4,0.2l0.5,0
			l-0.3,0.4C27,23.5,27,23.7,27,23.9l0.1,0.4l-0.4-0.2c-0.1,0-0.1,0-0.2,0c-0.1,0-0.2,0-0.3,0.1l-0.4,0.3L25.9,24z"/>
		<path d="M26.4,23.4c0,0,0.1,0.1,0.1,0.1c0,0.1,0,0.1,0,0.2c-0.1,0-0.1,0-0.2,0c0-0.1,0-0.1-0.1-0.1C26.3,23.4,26.4,23.4,26.4,23.4
			 M26.2,21.3l-0.5,1.4L24.2,23l1.2,0.9l-0.1,1.5l1.2-0.8l1.4,0.5l-0.4-1.4l0.9-1.1L27,22.6L26.2,21.3L26.2,21.3z"/>
	</g>
	<g>
		<path d="M28.7,9.1c0-0.2-0.1-0.3-0.2-0.4l-0.4-0.3l0.4-0.1c0.2,0,0.3-0.2,0.3-0.3l0.2-0.4L29.4,8c0.1,0.1,0.2,0.2,0.4,0.2l0.5,0
			l-0.3,0.4c-0.1,0.1-0.1,0.3-0.1,0.5L30,9.5l-0.4-0.2c-0.1,0-0.1,0-0.2,0c-0.1,0-0.2,0-0.3,0.1l-0.4,0.3L28.7,9.1z"/>
		<path d="M29.2,8.5c0,0,0.1,0.1,0.1,0.1c0,0.1,0,0.1,0,0.2c-0.1,0-0.1,0-0.2,0c0-0.1,0-0.1-0.1-0.1C29.1,8.6,29.2,8.6,29.2,8.5
			 M29,6.5l-0.5,1.4l-1.4,0.4l1.2,0.9l-0.1,1.5l1.2-0.8l1.4,0.5l-0.4-1.4l0.9-1.1l-1.5-0.1L29,6.5L29,6.5z"/>
	</g>
</g>
</svg>
