<?xml version="1.0" encoding="UTF-8"?><svg id="_イヤー_1" xmlns="http://www.w3.org/2000/svg" viewBox="0 0 26.61 23.65"><defs><style>.cls-1{fill:none;stroke:#000;stroke-linecap:round;stroke-linejoin:round;stroke-width:2px;}</style></defs><line class="cls-1" x1="11.11" y1="11.19" x2="1" y2="22.65"/><polygon class="cls-1" points="18.97 1.6 17.73 6.95 21.43 11.01 15.96 11.48 13.24 16.25 11.11 11.19 5.73 10.08 9.88 6.49 9.27 1.03 13.97 3.87 18.97 1.6"/><g><path d="M2.63,5.1c.01-.16-.06-.32-.19-.43l-.36-.28,.45-.11c.16-.04,.29-.16,.35-.31l.16-.43,.25,.39c.09,.14,.24,.23,.4,.23l.46,.02-.29,.35c-.1,.13-.14,.3-.1,.45l.12,.44-.43-.17c-.06-.02-.12-.04-.19-.04-.1,0-.19,.03-.28,.08l-.38,.26,.03-.46Z"/><path d="M3.13,4.48s.09,.06,.14,.08c-.02,.05-.03,.11-.03,.16-.05,0-.11,0-.16,.02-.02-.05-.04-.1-.07-.15,.04-.03,.08-.07,.12-.11m-.22-2.07l-.51,1.38-1.43,.36,1.16,.91-.1,1.47,1.23-.82,1.37,.55-.4-1.42,.94-1.13-1.47-.06-.79-1.25h0Z"/></g><g><path d="M21.25,17.54c.01-.16-.06-.32-.19-.42l-.36-.29,.45-.11c.16-.04,.29-.16,.35-.31l.16-.43,.25,.39c.09,.14,.24,.23,.4,.23l.46,.02-.29,.35c-.1,.13-.14,.3-.1,.46l.12,.44-.43-.17c-.06-.02-.12-.04-.19-.04-.1,0-.19,.03-.28,.08l-.38,.25,.03-.46Z"/><path d="M21.75,16.92s.09,.06,.14,.08c-.02,.05-.03,.11-.03,.16-.05,0-.11,0-.16,.02-.02-.05-.04-.1-.07-.15,.04-.03,.08-.07,.12-.11m-.22-2.07l-.51,1.38-1.43,.36,1.16,.91-.1,1.47,1.23-.82,1.37,.55-.4-1.42,.94-1.13-1.47-.06-.79-1.25h0Z"/></g><g><path d="M24.07,2.69c.01-.16-.06-.32-.19-.43l-.36-.28,.45-.11c.16-.04,.29-.16,.35-.31l.16-.43,.25,.39c.09,.14,.24,.23,.4,.23l.46,.02-.29,.35c-.1,.13-.14,.3-.1,.46l.12,.44-.43-.17c-.06-.02-.12-.04-.19-.04-.1,0-.19,.03-.28,.08l-.38,.26,.03-.46Z"/><path d="M24.57,2.07s.09,.06,.14,.08c-.02,.05-.03,.11-.03,.16-.05,0-.11,0-.16,.02-.02-.05-.04-.1-.07-.15,.04-.03,.08-.07,.12-.11m-.22-2.07l-.51,1.38-1.43,.36,1.16,.91-.1,1.47,1.23-.82,1.37,.55-.4-1.42,.94-1.13-1.47-.06-.79-1.25h0Z"/></g></svg>