<?xml version="1.0" encoding="utf-8"?>
<!-- Generator: Adobe Illustrator 26.3.1, SVG Export Plug-In . SVG Version: 6.00 Build 0)  -->
<svg version="1.1" id="レイヤー_1" xmlns="http://www.w3.org/2000/svg" xmlns:xlink="http://www.w3.org/1999/xlink" x="0px"
	 y="0px" viewBox="0 0 32 33" style="enable-background:new 0 0 32 33;" xml:space="preserve">
<style type="text/css">
	.st0{fill:none;stroke:#000000;stroke-width:2;stroke-linecap:round;stroke-linejoin:round;}
</style>
<g>
	<path class="st0" d="M28,12.6c0,0-4.5-5-6.4-6.1c-0.7-0.4-1.8-0.9-1.8-0.9S19.6,8.9,16,8.9c-3.2,0-3.8-3.4-3.8-3.4S11,6.1,10.4,6.5
		C8.5,7.6,4,12.9,4,12.9l2.4,2.7c0.8-0.8,1.6-1.5,2.1-1.8c0.5-0.3,1.3-0.7,1.3-0.7s0.1,0.3,0.3,0.8l0.2,0.4c0.4,0.6,1.1,1.1,2.2,1.1
		c2.6,0,2.8-2.3,2.8-2.3s0.8,0.4,1.3,0.7c1.3,0.8,4.5,4.2,4.5,4.2l-2.3,2.5l-2.2-1.8l0.2,7.5h5.2l-0.3-12.6l3.1,2.6L28,12.6z"/>
	<path class="st0" d="M6.4,15.6C5.2,16.8,4,18.2,4,18.2l2.3,2.5l2.2-2l-0.2,8.7h8.4l0-1.2"/>
</g>
</svg>
