<?xml version="1.0" encoding="utf-8"?>
<!-- Generator: Adobe Illustrator 26.3.1, SVG Export Plug-In . SVG Version: 6.00 Build 0)  -->
<svg version="1.1" id="レイヤー_1" xmlns="http://www.w3.org/2000/svg" xmlns:xlink="http://www.w3.org/1999/xlink" x="0px"
	 y="0px" viewBox="0 0 32 33" style="enable-background:new 0 0 32 33;" xml:space="preserve">
<style type="text/css">
	.st0{fill:none;stroke:#000000;stroke-width:2;stroke-linecap:round;stroke-linejoin:round;}
</style>
<ellipse class="st0" cx="11.8" cy="11.1" rx="7.8" ry="4.6"/>
<ellipse class="st0" cx="11.8" cy="11.1" rx="2.8" ry="1.7"/>
<path class="st0" d="M4,22.7c0,1.3,3.2,3.8,7.8,3.8c4.1,0,16.2,0,16.2,0V15.7c0,0-12.2,0-16.2,0C7.1,15.6,4,13.5,4,11.8
	C4,11.1,4,20,4,22.7z"/>
<line class="st0" x1="19.6" y1="11.1" x2="19.6" y2="15.6"/>
<line class="st0" x1="17.7" y1="22.1" x2="17.7" y2="26.4"/>
<line class="st0" x1="14.2" y1="23.7" x2="14.2" y2="26.5"/>
<line class="st0" x1="7" y1="21" x2="7" y2="25.3"/>
<line class="st0" x1="10.5" y1="23.7" x2="10.5" y2="26.3"/>
<line class="st0" x1="21.3" y1="23.7" x2="21.3" y2="26.5"/>
<line class="st0" x1="24.9" y1="23.7" x2="24.9" y2="26.5"/>
</svg>
